<mxfile host="app.diagrams.net" modified="2024-05-25T16:58:55.184Z" agent="Mozilla/5.0 (Windows NT 10.0; Win64; x64; rv:126.0) Gecko/20100101 Firefox/126.0" etag="sxXtBrgjKJBCUtsnUwzV" version="24.4.8" type="github">
  <diagram id="C5RBs43oDa-KdzZeNtuy" name="Page-1">
    <mxGraphModel dx="981" dy="666" grid="1" gridSize="10" guides="1" tooltips="1" connect="1" arrows="1" fold="1" page="1" pageScale="1" pageWidth="827" pageHeight="1169" math="0" shadow="0">
      <root>
        <mxCell id="WIyWlLk6GJQsqaUBKTNV-0" />
        <mxCell id="WIyWlLk6GJQsqaUBKTNV-1" parent="WIyWlLk6GJQsqaUBKTNV-0" />
        <mxCell id="WIyWlLk6GJQsqaUBKTNV-2" value="" style="rounded=0;html=1;jettySize=auto;orthogonalLoop=1;fontSize=11;endArrow=block;endFill=0;endSize=8;strokeWidth=1;shadow=0;labelBackgroundColor=none;edgeStyle=orthogonalEdgeStyle;" parent="WIyWlLk6GJQsqaUBKTNV-1" source="WIyWlLk6GJQsqaUBKTNV-3" target="WIyWlLk6GJQsqaUBKTNV-6" edge="1">
          <mxGeometry relative="1" as="geometry" />
        </mxCell>
        <mxCell id="WIyWlLk6GJQsqaUBKTNV-3" value="&lt;b&gt;sql&lt;/b&gt;" style="rounded=1;whiteSpace=wrap;html=1;fontSize=12;glass=0;strokeWidth=1;shadow=0;" parent="WIyWlLk6GJQsqaUBKTNV-1" vertex="1">
          <mxGeometry x="847" width="60" height="20" as="geometry" />
        </mxCell>
        <mxCell id="WIyWlLk6GJQsqaUBKTNV-4" value="Yes" style="rounded=0;html=1;jettySize=auto;orthogonalLoop=1;fontSize=11;endArrow=block;endFill=0;endSize=8;strokeWidth=1;shadow=0;labelBackgroundColor=none;edgeStyle=orthogonalEdgeStyle;" parent="WIyWlLk6GJQsqaUBKTNV-1" source="WIyWlLk6GJQsqaUBKTNV-6" target="WIyWlLk6GJQsqaUBKTNV-10" edge="1">
          <mxGeometry y="20" relative="1" as="geometry">
            <mxPoint as="offset" />
          </mxGeometry>
        </mxCell>
        <mxCell id="WIyWlLk6GJQsqaUBKTNV-5" value="No" style="edgeStyle=orthogonalEdgeStyle;rounded=0;html=1;jettySize=auto;orthogonalLoop=1;fontSize=11;endArrow=block;endFill=0;endSize=8;strokeWidth=1;shadow=0;labelBackgroundColor=none;entryX=0;entryY=0.5;entryDx=0;entryDy=0;" parent="WIyWlLk6GJQsqaUBKTNV-1" source="WIyWlLk6GJQsqaUBKTNV-6" target="UvbeZ7jEhYpXnwvqV_co-1" edge="1">
          <mxGeometry x="-0.0046" y="15" relative="1" as="geometry">
            <mxPoint as="offset" />
            <mxPoint x="997" y="140" as="targetPoint" />
          </mxGeometry>
        </mxCell>
        <mxCell id="WIyWlLk6GJQsqaUBKTNV-6" value="arguments provided?" style="rhombus;whiteSpace=wrap;html=1;shadow=0;fontFamily=Helvetica;fontSize=12;align=center;strokeWidth=1;spacing=6;spacingTop=-4;" parent="WIyWlLk6GJQsqaUBKTNV-1" vertex="1">
          <mxGeometry x="827" y="60" width="100" height="80" as="geometry" />
        </mxCell>
        <mxCell id="UvbeZ7jEhYpXnwvqV_co-17" value="" style="edgeStyle=orthogonalEdgeStyle;rounded=0;orthogonalLoop=1;jettySize=auto;html=1;" edge="1" parent="WIyWlLk6GJQsqaUBKTNV-1" source="WIyWlLk6GJQsqaUBKTNV-10" target="UvbeZ7jEhYpXnwvqV_co-13">
          <mxGeometry relative="1" as="geometry" />
        </mxCell>
        <mxCell id="UvbeZ7jEhYpXnwvqV_co-18" value="&lt;div&gt;yes&lt;/div&gt;" style="edgeLabel;html=1;align=center;verticalAlign=middle;resizable=0;points=[];" vertex="1" connectable="0" parent="UvbeZ7jEhYpXnwvqV_co-17">
          <mxGeometry x="-0.0333" y="3" relative="1" as="geometry">
            <mxPoint as="offset" />
          </mxGeometry>
        </mxCell>
        <mxCell id="WIyWlLk6GJQsqaUBKTNV-10" value="$1 = connect?" style="rhombus;whiteSpace=wrap;html=1;shadow=0;fontFamily=Helvetica;fontSize=12;align=center;strokeWidth=1;spacing=6;spacingTop=-4;" parent="WIyWlLk6GJQsqaUBKTNV-1" vertex="1">
          <mxGeometry x="827" y="190" width="100" height="80" as="geometry" />
        </mxCell>
        <mxCell id="UvbeZ7jEhYpXnwvqV_co-0" style="edgeStyle=orthogonalEdgeStyle;rounded=0;orthogonalLoop=1;jettySize=auto;html=1;exitX=0.5;exitY=1;exitDx=0;exitDy=0;" edge="1" parent="WIyWlLk6GJQsqaUBKTNV-1">
          <mxGeometry relative="1" as="geometry">
            <mxPoint x="1067" y="120" as="sourcePoint" />
            <mxPoint x="1067" y="120" as="targetPoint" />
          </mxGeometry>
        </mxCell>
        <mxCell id="UvbeZ7jEhYpXnwvqV_co-1" value="default_function()" style="shape=process;whiteSpace=wrap;html=1;backgroundOutline=1;" vertex="1" parent="WIyWlLk6GJQsqaUBKTNV-1">
          <mxGeometry x="1017" y="85" width="120" height="30" as="geometry" />
        </mxCell>
        <mxCell id="UvbeZ7jEhYpXnwvqV_co-7" value="" style="edgeStyle=orthogonalEdgeStyle;rounded=0;orthogonalLoop=1;jettySize=auto;html=1;" edge="1" parent="WIyWlLk6GJQsqaUBKTNV-1" source="UvbeZ7jEhYpXnwvqV_co-5" target="UvbeZ7jEhYpXnwvqV_co-6">
          <mxGeometry relative="1" as="geometry" />
        </mxCell>
        <mxCell id="UvbeZ7jEhYpXnwvqV_co-5" value="test_connection()" style="shape=process;whiteSpace=wrap;html=1;backgroundOutline=1;" vertex="1" parent="WIyWlLk6GJQsqaUBKTNV-1">
          <mxGeometry x="997" y="340" width="120" height="30" as="geometry" />
        </mxCell>
        <mxCell id="UvbeZ7jEhYpXnwvqV_co-9" value="&lt;div&gt;no&lt;/div&gt;" style="edgeStyle=orthogonalEdgeStyle;rounded=0;orthogonalLoop=1;jettySize=auto;html=1;" edge="1" parent="WIyWlLk6GJQsqaUBKTNV-1" source="UvbeZ7jEhYpXnwvqV_co-6" target="UvbeZ7jEhYpXnwvqV_co-8">
          <mxGeometry relative="1" as="geometry" />
        </mxCell>
        <mxCell id="UvbeZ7jEhYpXnwvqV_co-27" value="" style="edgeStyle=orthogonalEdgeStyle;rounded=0;orthogonalLoop=1;jettySize=auto;html=1;" edge="1" parent="WIyWlLk6GJQsqaUBKTNV-1" source="UvbeZ7jEhYpXnwvqV_co-6">
          <mxGeometry relative="1" as="geometry">
            <mxPoint x="1057" y="565" as="targetPoint" />
          </mxGeometry>
        </mxCell>
        <mxCell id="UvbeZ7jEhYpXnwvqV_co-28" value="yes" style="edgeLabel;html=1;align=center;verticalAlign=middle;resizable=0;points=[];" vertex="1" connectable="0" parent="UvbeZ7jEhYpXnwvqV_co-27">
          <mxGeometry x="-0.1868" y="-2" relative="1" as="geometry">
            <mxPoint as="offset" />
          </mxGeometry>
        </mxCell>
        <mxCell id="UvbeZ7jEhYpXnwvqV_co-6" value="connection successful?" style="rhombus;whiteSpace=wrap;html=1;" vertex="1" parent="WIyWlLk6GJQsqaUBKTNV-1">
          <mxGeometry x="1002" y="425" width="110" height="60" as="geometry" />
        </mxCell>
        <mxCell id="UvbeZ7jEhYpXnwvqV_co-12" value="no" style="edgeStyle=orthogonalEdgeStyle;rounded=0;orthogonalLoop=1;jettySize=auto;html=1;" edge="1" parent="WIyWlLk6GJQsqaUBKTNV-1" source="UvbeZ7jEhYpXnwvqV_co-8" target="UvbeZ7jEhYpXnwvqV_co-11">
          <mxGeometry relative="1" as="geometry" />
        </mxCell>
        <mxCell id="UvbeZ7jEhYpXnwvqV_co-34" value="" style="edgeStyle=orthogonalEdgeStyle;rounded=0;orthogonalLoop=1;jettySize=auto;html=1;" edge="1" parent="WIyWlLk6GJQsqaUBKTNV-1" source="UvbeZ7jEhYpXnwvqV_co-8" target="UvbeZ7jEhYpXnwvqV_co-33">
          <mxGeometry relative="1" as="geometry" />
        </mxCell>
        <mxCell id="UvbeZ7jEhYpXnwvqV_co-35" value="yes" style="edgeLabel;html=1;align=center;verticalAlign=middle;resizable=0;points=[];" vertex="1" connectable="0" parent="UvbeZ7jEhYpXnwvqV_co-34">
          <mxGeometry x="-0.1694" y="-2" relative="1" as="geometry">
            <mxPoint as="offset" />
          </mxGeometry>
        </mxCell>
        <mxCell id="UvbeZ7jEhYpXnwvqV_co-8" value="want to connect?" style="shape=parallelogram;perimeter=parallelogramPerimeter;whiteSpace=wrap;html=1;fixedSize=1;" vertex="1" parent="WIyWlLk6GJQsqaUBKTNV-1">
          <mxGeometry x="1167" y="445" width="130" height="20" as="geometry" />
        </mxCell>
        <mxCell id="UvbeZ7jEhYpXnwvqV_co-11" value="&lt;div&gt;&lt;b&gt;exit&lt;/b&gt;&lt;/div&gt;" style="rounded=1;whiteSpace=wrap;html=1;" vertex="1" parent="WIyWlLk6GJQsqaUBKTNV-1">
          <mxGeometry x="1357" y="445" width="30" height="20" as="geometry" />
        </mxCell>
        <mxCell id="UvbeZ7jEhYpXnwvqV_co-21" value="" style="edgeStyle=orthogonalEdgeStyle;rounded=0;orthogonalLoop=1;jettySize=auto;html=1;" edge="1" parent="WIyWlLk6GJQsqaUBKTNV-1" source="UvbeZ7jEhYpXnwvqV_co-13" target="UvbeZ7jEhYpXnwvqV_co-5">
          <mxGeometry relative="1" as="geometry" />
        </mxCell>
        <mxCell id="UvbeZ7jEhYpXnwvqV_co-22" value="no" style="edgeLabel;html=1;align=center;verticalAlign=middle;resizable=0;points=[];" vertex="1" connectable="0" parent="UvbeZ7jEhYpXnwvqV_co-21">
          <mxGeometry x="-0.1681" y="3" relative="1" as="geometry">
            <mxPoint as="offset" />
          </mxGeometry>
        </mxCell>
        <mxCell id="UvbeZ7jEhYpXnwvqV_co-37" value="" style="edgeStyle=orthogonalEdgeStyle;rounded=0;orthogonalLoop=1;jettySize=auto;html=1;" edge="1" parent="WIyWlLk6GJQsqaUBKTNV-1" source="UvbeZ7jEhYpXnwvqV_co-13">
          <mxGeometry relative="1" as="geometry">
            <mxPoint x="877" y="445" as="targetPoint" />
          </mxGeometry>
        </mxCell>
        <mxCell id="UvbeZ7jEhYpXnwvqV_co-13" value="$2 provided?" style="rhombus;whiteSpace=wrap;html=1;shadow=0;strokeWidth=1;spacing=6;spacingTop=-4;" vertex="1" parent="WIyWlLk6GJQsqaUBKTNV-1">
          <mxGeometry x="827" y="330" width="100" height="50" as="geometry" />
        </mxCell>
        <mxCell id="UvbeZ7jEhYpXnwvqV_co-31" value="" style="edgeStyle=orthogonalEdgeStyle;rounded=0;orthogonalLoop=1;jettySize=auto;html=1;" edge="1" parent="WIyWlLk6GJQsqaUBKTNV-1" source="UvbeZ7jEhYpXnwvqV_co-29" target="UvbeZ7jEhYpXnwvqV_co-30">
          <mxGeometry relative="1" as="geometry" />
        </mxCell>
        <mxCell id="UvbeZ7jEhYpXnwvqV_co-29" value="print_status()" style="shape=process;whiteSpace=wrap;html=1;backgroundOutline=1;" vertex="1" parent="WIyWlLk6GJQsqaUBKTNV-1">
          <mxGeometry x="1007" y="565" width="100" height="25" as="geometry" />
        </mxCell>
        <mxCell id="UvbeZ7jEhYpXnwvqV_co-30" value="&lt;div&gt;&lt;b&gt;exit&lt;/b&gt;&lt;/div&gt;" style="rounded=1;whiteSpace=wrap;html=1;" vertex="1" parent="WIyWlLk6GJQsqaUBKTNV-1">
          <mxGeometry x="1042" y="640" width="30" height="20" as="geometry" />
        </mxCell>
        <mxCell id="UvbeZ7jEhYpXnwvqV_co-33" value="" style="rhombus;whiteSpace=wrap;html=1;" vertex="1" parent="WIyWlLk6GJQsqaUBKTNV-1">
          <mxGeometry x="1192" y="515" width="80" height="80" as="geometry" />
        </mxCell>
        <mxCell id="UvbeZ7jEhYpXnwvqV_co-41" value="" style="edgeStyle=orthogonalEdgeStyle;rounded=0;orthogonalLoop=1;jettySize=auto;html=1;" edge="1" parent="WIyWlLk6GJQsqaUBKTNV-1" target="UvbeZ7jEhYpXnwvqV_co-40">
          <mxGeometry relative="1" as="geometry">
            <mxPoint x="877" y="470" as="sourcePoint" />
          </mxGeometry>
        </mxCell>
        <mxCell id="UvbeZ7jEhYpXnwvqV_co-40" value="attempt successful?" style="rhombus;whiteSpace=wrap;html=1;" vertex="1" parent="WIyWlLk6GJQsqaUBKTNV-1">
          <mxGeometry x="827" y="541.25" width="100" height="72.5" as="geometry" />
        </mxCell>
        <mxCell id="UvbeZ7jEhYpXnwvqV_co-42" value="" style="rounded=0;html=1;jettySize=auto;orthogonalLoop=1;fontSize=11;endArrow=block;endFill=0;endSize=8;strokeWidth=1;shadow=0;labelBackgroundColor=none;edgeStyle=orthogonalEdgeStyle;" edge="1" parent="WIyWlLk6GJQsqaUBKTNV-1" source="UvbeZ7jEhYpXnwvqV_co-43" target="UvbeZ7jEhYpXnwvqV_co-44">
          <mxGeometry relative="1" as="geometry" />
        </mxCell>
        <mxCell id="UvbeZ7jEhYpXnwvqV_co-43" value="&lt;b&gt;sql&lt;/b&gt;" style="rounded=1;whiteSpace=wrap;html=1;fontSize=12;glass=0;strokeWidth=1;shadow=0;" vertex="1" parent="WIyWlLk6GJQsqaUBKTNV-1">
          <mxGeometry x="50" y="20" width="60" height="20" as="geometry" />
        </mxCell>
        <mxCell id="UvbeZ7jEhYpXnwvqV_co-49" value="" style="edgeStyle=orthogonalEdgeStyle;rounded=0;orthogonalLoop=1;jettySize=auto;html=1;" edge="1" parent="WIyWlLk6GJQsqaUBKTNV-1" source="UvbeZ7jEhYpXnwvqV_co-44" target="UvbeZ7jEhYpXnwvqV_co-48">
          <mxGeometry relative="1" as="geometry" />
        </mxCell>
        <mxCell id="UvbeZ7jEhYpXnwvqV_co-44" value="ls?" style="rhombus;whiteSpace=wrap;html=1;shadow=0;fontFamily=Helvetica;fontSize=12;align=center;strokeWidth=1;spacing=6;spacingTop=-4;" vertex="1" parent="WIyWlLk6GJQsqaUBKTNV-1">
          <mxGeometry x="47.5" y="80" width="65" height="30" as="geometry" />
        </mxCell>
        <mxCell id="UvbeZ7jEhYpXnwvqV_co-47" value="sql_connect()" style="shape=process;whiteSpace=wrap;html=1;backgroundOutline=1;" vertex="1" parent="WIyWlLk6GJQsqaUBKTNV-1">
          <mxGeometry x="170" y="172.5" width="100" height="30" as="geometry" />
        </mxCell>
        <mxCell id="UvbeZ7jEhYpXnwvqV_co-51" value="" style="edgeStyle=orthogonalEdgeStyle;rounded=0;orthogonalLoop=1;jettySize=auto;html=1;" edge="1" parent="WIyWlLk6GJQsqaUBKTNV-1" source="UvbeZ7jEhYpXnwvqV_co-48" target="UvbeZ7jEhYpXnwvqV_co-50">
          <mxGeometry relative="1" as="geometry" />
        </mxCell>
        <mxCell id="UvbeZ7jEhYpXnwvqV_co-52" value="" style="edgeStyle=orthogonalEdgeStyle;rounded=0;orthogonalLoop=1;jettySize=auto;html=1;" edge="1" parent="WIyWlLk6GJQsqaUBKTNV-1" source="UvbeZ7jEhYpXnwvqV_co-48" target="UvbeZ7jEhYpXnwvqV_co-47">
          <mxGeometry relative="1" as="geometry" />
        </mxCell>
        <mxCell id="UvbeZ7jEhYpXnwvqV_co-48" value="connect?" style="rhombus;whiteSpace=wrap;html=1;shadow=0;strokeWidth=1;spacing=6;spacingTop=-4;" vertex="1" parent="WIyWlLk6GJQsqaUBKTNV-1">
          <mxGeometry x="40" y="165" width="80" height="45" as="geometry" />
        </mxCell>
        <mxCell id="UvbeZ7jEhYpXnwvqV_co-61" value="" style="edgeStyle=orthogonalEdgeStyle;rounded=0;orthogonalLoop=1;jettySize=auto;html=1;" edge="1" parent="WIyWlLk6GJQsqaUBKTNV-1" source="UvbeZ7jEhYpXnwvqV_co-50" target="UvbeZ7jEhYpXnwvqV_co-60">
          <mxGeometry relative="1" as="geometry" />
        </mxCell>
        <mxCell id="UvbeZ7jEhYpXnwvqV_co-50" value="select?" style="rhombus;whiteSpace=wrap;html=1;shadow=0;strokeWidth=1;spacing=6;spacingTop=-4;" vertex="1" parent="WIyWlLk6GJQsqaUBKTNV-1">
          <mxGeometry x="42.5" y="270" width="75" height="40" as="geometry" />
        </mxCell>
        <mxCell id="UvbeZ7jEhYpXnwvqV_co-56" value="list_tables()" style="shape=process;whiteSpace=wrap;html=1;backgroundOutline=1;" vertex="1" parent="WIyWlLk6GJQsqaUBKTNV-1">
          <mxGeometry x="170" y="80" width="100" height="30" as="geometry" />
        </mxCell>
        <mxCell id="UvbeZ7jEhYpXnwvqV_co-57" value="" style="edgeStyle=orthogonalEdgeStyle;rounded=0;orthogonalLoop=1;jettySize=auto;html=1;exitX=1;exitY=0.5;exitDx=0;exitDy=0;" edge="1" parent="WIyWlLk6GJQsqaUBKTNV-1" target="UvbeZ7jEhYpXnwvqV_co-56" source="UvbeZ7jEhYpXnwvqV_co-44">
          <mxGeometry relative="1" as="geometry">
            <mxPoint x="140" y="70" as="sourcePoint" />
          </mxGeometry>
        </mxCell>
        <mxCell id="UvbeZ7jEhYpXnwvqV_co-58" value="sql_select()" style="shape=process;whiteSpace=wrap;html=1;backgroundOutline=1;" vertex="1" parent="WIyWlLk6GJQsqaUBKTNV-1">
          <mxGeometry x="170" y="275" width="100" height="30" as="geometry" />
        </mxCell>
        <mxCell id="UvbeZ7jEhYpXnwvqV_co-59" value="" style="edgeStyle=orthogonalEdgeStyle;rounded=0;orthogonalLoop=1;jettySize=auto;html=1;exitX=1;exitY=0.5;exitDx=0;exitDy=0;" edge="1" parent="WIyWlLk6GJQsqaUBKTNV-1" target="UvbeZ7jEhYpXnwvqV_co-58" source="UvbeZ7jEhYpXnwvqV_co-50">
          <mxGeometry relative="1" as="geometry">
            <mxPoint x="120" y="260" as="sourcePoint" />
          </mxGeometry>
        </mxCell>
        <mxCell id="UvbeZ7jEhYpXnwvqV_co-63" value="" style="edgeStyle=orthogonalEdgeStyle;rounded=0;orthogonalLoop=1;jettySize=auto;html=1;" edge="1" parent="WIyWlLk6GJQsqaUBKTNV-1" source="UvbeZ7jEhYpXnwvqV_co-60">
          <mxGeometry relative="1" as="geometry">
            <mxPoint x="80" y="511.25" as="targetPoint" />
          </mxGeometry>
        </mxCell>
        <mxCell id="UvbeZ7jEhYpXnwvqV_co-60" value="" style="rhombus;whiteSpace=wrap;html=1;shadow=0;strokeWidth=1;spacing=6;spacingTop=-4;" vertex="1" parent="WIyWlLk6GJQsqaUBKTNV-1">
          <mxGeometry x="45" y="370" width="70" height="60" as="geometry" />
        </mxCell>
        <mxCell id="UvbeZ7jEhYpXnwvqV_co-64" value="interpreter..." style="shape=process;whiteSpace=wrap;html=1;backgroundOutline=1;" vertex="1" parent="WIyWlLk6GJQsqaUBKTNV-1">
          <mxGeometry x="30" y="511.25" width="100" height="30" as="geometry" />
        </mxCell>
      </root>
    </mxGraphModel>
  </diagram>
</mxfile>
